<svg width="1080" height="1080" viewBox="0 0 1080 1080" fill="none" xmlns="http://www.w3.org/2000/svg">
<g clip-path="url(#clip0)">
<path d="M731.9 282.8C761.233 282.8 784.7 291.233 802.3 308.1C819.9 324.233 828.7 345.867 828.7 373V769C828.7 858.467 801.567 926.3 747.3 972.5C693.767 1018.7 614.933 1041.8 510.8 1041.8C470.467 1041.8 432.333 1038.13 396.4 1030.8C360.467 1023.47 330.033 1012.83 305.1 998.9C291.9 991.567 281.267 982.033 273.2 970.3C265.867 958.567 262.2 945.367 262.2 930.7C262.2 909.433 267.333 892.2 277.6 879C288.6 865.8 302.533 859.2 319.4 859.2C332.6 859.2 356.433 864.7 390.9 875.7C413.633 883.033 433.8 888.533 451.4 892.2C469 896.6 486.967 898.8 505.3 898.8C550.033 898.8 582.667 889.267 603.2 870.2C624.467 851.867 635.1 822.533 635.1 782.2V740.4C618.967 764.6 595.867 784.033 565.8 798.7C535.733 812.633 503.1 819.6 467.9 819.6C420.967 819.6 379.167 808.6 342.5 786.6C305.833 764.6 277.233 733.433 256.7 693.1C236.167 652.033 225.9 604.733 225.9 551.2C225.9 497.667 236.167 450.367 256.7 409.3C277.233 368.233 305.833 336.7 342.5 314.7C379.167 291.967 420.967 280.6 467.9 280.6C503.833 280.6 536.833 287.933 566.9 302.6C596.967 317.267 620.067 337.433 636.2 363.1C637.667 338.167 646.833 318.733 663.7 304.8C681.3 290.133 704.033 282.8 731.9 282.8ZM527.3 673.3C561.767 673.3 588.533 662.667 607.6 641.4C626.667 620.133 636.2 590.067 636.2 551.2C636.2 512.333 626.667 481.9 607.6 459.9C588.533 437.9 561.767 426.9 527.3 426.9C493.567 426.9 467.167 437.9 448.1 459.9C429.033 481.167 419.5 511.6 419.5 551.2C419.5 589.333 429.033 619.4 448.1 641.4C467.9 662.667 494.3 673.3 527.3 673.3Z" fill="#46C0AD"/>
<circle cx="744.5" cy="161.5" r="99.5" fill="#4A5968"/>
</g>
<defs>
<clipPath id="clip0">
<rect width="1080" height="1080" fill="white"/>
</clipPath>
</defs>
</svg>
